<svg width="102" height="29" viewBox="0 0 102 29" fill="none" xmlns="http://www.w3.org/2000/svg">
<path d="M4.66 15.3H11.38V17.9H4.66V15.3ZM4.9 23H1.66V9H12.24V11.6H4.9V23ZM14.2134 23V12.24H17.3334V23H14.2134ZM15.7734 10.74C15.2001 10.74 14.7334 10.5733 14.3734 10.24C14.0134 9.90667 13.8334 9.49333 13.8334 9C13.8334 8.50667 14.0134 8.09333 14.3734 7.76C14.7334 7.42667 15.2001 7.26 15.7734 7.26C16.3468 7.26 16.8134 7.42 17.1734 7.74C17.5334 8.04667 17.7134 8.44667 17.7134 8.94C17.7134 9.46 17.5334 9.89333 17.1734 10.24C16.8268 10.5733 16.3601 10.74 15.7734 10.74ZM20.2291 23V8.16H23.3491V23H20.2291ZM26.2447 23V8.16H29.3647V23H26.2447Z" fill="white"/>
<path d="M51.56 23V11.64H47.08V9H59.28V11.64H54.8V23H51.56ZM64.8295 23.16C63.6829 23.16 62.6629 22.92 61.7695 22.44C60.8895 21.96 60.1895 21.3067 59.6695 20.48C59.1629 19.64 58.9095 18.6867 58.9095 17.62C58.9095 16.54 59.1629 15.5867 59.6695 14.76C60.1895 13.92 60.8895 13.2667 61.7695 12.8C62.6629 12.32 63.6829 12.08 64.8295 12.08C65.9629 12.08 66.9762 12.32 67.8695 12.8C68.7629 13.2667 69.4629 13.9133 69.9695 14.74C70.4762 15.5667 70.7295 16.5267 70.7295 17.62C70.7295 18.6867 70.4762 19.64 69.9695 20.48C69.4629 21.3067 68.7629 21.96 67.8695 22.44C66.9762 22.92 65.9629 23.16 64.8295 23.16ZM64.8295 20.6C65.3495 20.6 65.8162 20.48 66.2295 20.24C66.6429 20 66.9695 19.66 67.2095 19.22C67.4495 18.7667 67.5695 18.2333 67.5695 17.62C67.5695 16.9933 67.4495 16.46 67.2095 16.02C66.9695 15.58 66.6429 15.24 66.2295 15C65.8162 14.76 65.3495 14.64 64.8295 14.64C64.3095 14.64 63.8429 14.76 63.4295 15C63.0162 15.24 62.6829 15.58 62.4295 16.02C62.1895 16.46 62.0695 16.9933 62.0695 17.62C62.0695 18.2333 62.1895 18.7667 62.4295 19.22C62.6829 19.66 63.0162 20 63.4295 20.24C63.8429 20.48 64.3095 20.6 64.8295 20.6ZM73.035 23V9H79.395C80.915 9 82.255 9.29333 83.415 9.88C84.575 10.4533 85.4817 11.26 86.135 12.3C86.7883 13.34 87.115 14.5733 87.115 16C87.115 17.4133 86.7883 18.6467 86.135 19.7C85.4817 20.74 84.575 21.5533 83.415 22.14C82.255 22.7133 80.915 23 79.395 23H73.035ZM76.275 20.34H79.235C80.1683 20.34 80.975 20.1667 81.655 19.82C82.3483 19.46 82.8817 18.9533 83.255 18.3C83.6417 17.6467 83.835 16.88 83.835 16C83.835 15.1067 83.6417 14.34 83.255 13.7C82.8817 13.0467 82.3483 12.5467 81.655 12.2C80.975 11.84 80.1683 11.66 79.235 11.66H76.275V20.34ZM94.4584 23.16C93.3118 23.16 92.2918 22.92 91.3984 22.44C90.5184 21.96 89.8184 21.3067 89.2984 20.48C88.7918 19.64 88.5384 18.6867 88.5384 17.62C88.5384 16.54 88.7918 15.5867 89.2984 14.76C89.8184 13.92 90.5184 13.2667 91.3984 12.8C92.2918 12.32 93.3118 12.08 94.4584 12.08C95.5918 12.08 96.6051 12.32 97.4984 12.8C98.3918 13.2667 99.0918 13.9133 99.5984 14.74C100.105 15.5667 100.358 16.5267 100.358 17.62C100.358 18.6867 100.105 19.64 99.5984 20.48C99.0918 21.3067 98.3918 21.96 97.4984 22.44C96.6051 22.92 95.5918 23.16 94.4584 23.16ZM94.4584 20.6C94.9784 20.6 95.4451 20.48 95.8584 20.24C96.2718 20 96.5984 19.66 96.8384 19.22C97.0784 18.7667 97.1984 18.2333 97.1984 17.62C97.1984 16.9933 97.0784 16.46 96.8384 16.02C96.5984 15.58 96.2718 15.24 95.8584 15C95.4451 14.76 94.9784 14.64 94.4584 14.64C93.9384 14.64 93.4718 14.76 93.0584 15C92.6451 15.24 92.3118 15.58 92.0584 16.02C91.8184 16.46 91.6984 16.9933 91.6984 17.62C91.6984 18.2333 91.8184 18.7667 92.0584 19.22C92.3118 19.66 92.6451 20 93.0584 20.24C93.4718 20.48 93.9384 20.6 94.4584 20.6Z" fill="#3D4D78"/>
</svg>
