<svg width="23" height="9" viewBox="0 0 23 9" fill="none" xmlns="http://www.w3.org/2000/svg">
<path d="M1.004 3.964H5.552V4.504H1.004V3.964ZM1.076 7.948H6.26V8.5H0.464V0.0999994H6.08V0.651999H1.076V7.948ZM10.6993 8.56C10.0753 8.56 9.48334 8.456 8.92334 8.248C8.37134 8.032 7.94334 7.756 7.63934 7.42L7.91534 6.964C8.20334 7.26 8.59534 7.512 9.09134 7.72C9.59534 7.92 10.1273 8.02 10.6873 8.02C11.2473 8.02 11.7033 7.948 12.0553 7.804C12.4153 7.652 12.6793 7.452 12.8473 7.204C13.0233 6.956 13.1113 6.68 13.1113 6.376C13.1113 6.016 13.0153 5.728 12.8233 5.512C12.6313 5.296 12.3793 5.124 12.0673 4.996C11.7553 4.868 11.4153 4.76 11.0473 4.672C10.6793 4.584 10.3073 4.492 9.93134 4.396C9.55534 4.292 9.21134 4.16 8.89934 4C8.58734 3.84 8.33534 3.624 8.14334 3.352C7.95934 3.072 7.86734 2.712 7.86734 2.272C7.86734 1.872 7.97134 1.504 8.17934 1.168C8.38734 0.832 8.71134 0.559999 9.15134 0.352C9.59134 0.144 10.1553 0.0399995 10.8433 0.0399995C11.3073 0.0399995 11.7633 0.108 12.2113 0.244C12.6673 0.38 13.0553 0.564 13.3753 0.796L13.1473 1.288C12.7953 1.048 12.4153 0.872 12.0073 0.76C11.6073 0.64 11.2193 0.58 10.8433 0.58C10.3073 0.58 9.86334 0.656 9.51134 0.808C9.15934 0.96 8.89934 1.164 8.73134 1.42C8.56334 1.668 8.47934 1.948 8.47934 2.26C8.47934 2.62 8.57134 2.908 8.75534 3.124C8.94734 3.34 9.19934 3.512 9.51134 3.64C9.82334 3.768 10.1673 3.876 10.5433 3.964C10.9193 4.052 11.2913 4.148 11.6593 4.252C12.0273 4.348 12.3673 4.476 12.6793 4.636C12.9913 4.796 13.2433 5.012 13.4353 5.284C13.6273 5.556 13.7233 5.908 13.7233 6.34C13.7233 6.732 13.6153 7.1 13.3993 7.444C13.1833 7.78 12.8513 8.052 12.4033 8.26C11.9633 8.46 11.3953 8.56 10.6993 8.56ZM19.3558 8.56C18.7318 8.56 18.1518 8.456 17.6158 8.248C17.0878 8.032 16.6278 7.732 16.2358 7.348C15.8438 6.964 15.5398 6.516 15.3238 6.004C15.1078 5.484 14.9998 4.916 14.9998 4.3C14.9998 3.684 15.1078 3.12 15.3238 2.608C15.5398 2.088 15.8438 1.636 16.2358 1.252C16.6358 0.868 17.0998 0.572 17.6278 0.364C18.1558 0.148 18.7318 0.0399995 19.3558 0.0399995C19.9478 0.0399995 20.4998 0.135999 21.0118 0.327999C21.5318 0.52 21.9758 0.812 22.3438 1.204L21.9598 1.6C21.5998 1.248 21.1998 0.996 20.7598 0.844C20.3278 0.684 19.8678 0.603999 19.3798 0.603999C18.8438 0.603999 18.3438 0.695999 17.8798 0.879999C17.4238 1.064 17.0238 1.324 16.6798 1.66C16.3438 1.996 16.0798 2.388 15.8878 2.836C15.7038 3.284 15.6118 3.772 15.6118 4.3C15.6118 4.828 15.7038 5.316 15.8878 5.764C16.0798 6.212 16.3438 6.604 16.6798 6.94C17.0238 7.276 17.4238 7.536 17.8798 7.72C18.3438 7.904 18.8438 7.996 19.3798 7.996C19.8678 7.996 20.3278 7.92 20.7598 7.768C21.1998 7.608 21.5998 7.348 21.9598 6.988L22.3438 7.384C21.9758 7.776 21.5318 8.072 21.0118 8.272C20.4998 8.464 19.9478 8.56 19.3558 8.56Z" fill="#3D4D78"/>
</svg>
